<svg xmlns="http://www.w3.org/2000/svg" xmlns:xlink="http://www.w3.org/1999/xlink" width="600" zoomAndPan="magnify" viewBox="0 0 450 299.999988" height="400" preserveAspectRatio="xMidYMid meet" version="1.2"><defs/><g id="f00524e0e2"><rect x="0" width="450" y="0" height="299.999988" style="fill:#ffffff;fill-opacity:1;stroke:none;"/><rect x="0" width="450" y="0" height="299.999988" style="fill:#1e1e1e;fill-opacity:1;stroke:none;"/><g style="fill:#ffffff;fill-opacity:1;"><g transform="translate(192.745556, 99.749992)"><path style="stroke:none" d="M 23.734375 -6.625 L 23.734375 -30.78125 L 27.65625 -30.78125 L 27.65625 0 L 23.484375 0 L 7.3125 -24.171875 L 7.3125 0 L 3.390625 0 L 3.390625 -30.78125 L 7.5625 -30.78125 Z M 23.734375 -6.625 "/></g></g><g style="fill:#ffffff;fill-opacity:1;"><g transform="translate(223.788785, 99.749992)"><path style="stroke:none" d="M 16.21875 -31.296875 C 19.28125 -31.296875 21.960938 -30.632812 24.265625 -29.3125 C 26.578125 -28 28.351562 -26.140625 29.59375 -23.734375 C 30.84375 -21.328125 31.46875 -18.53125 31.46875 -15.34375 C 31.46875 -12.195312 30.832031 -9.414062 29.5625 -7 C 28.289062 -4.59375 26.550781 -2.738281 24.34375 -1.4375 C 22.132812 -0.132812 19.664062 0.515625 16.9375 0.515625 C 13.957031 0.515625 11.34375 -0.171875 9.09375 -1.546875 C 6.84375 -2.921875 5.097656 -4.789062 3.859375 -7.15625 C 2.628906 -9.519531 2.015625 -12.132812 2.015625 -15 C 2.015625 -18.269531 2.628906 -21.140625 3.859375 -23.609375 C 5.097656 -26.078125 6.789062 -27.972656 8.9375 -29.296875 C 11.09375 -30.628906 13.519531 -31.296875 16.21875 -31.296875 Z M 6.234375 -14.921875 C 6.234375 -12.546875 6.675781 -10.453125 7.5625 -8.640625 C 8.457031 -6.835938 9.695312 -5.441406 11.28125 -4.453125 C 12.875 -3.460938 14.691406 -2.96875 16.734375 -2.96875 C 18.816406 -2.96875 20.65625 -3.460938 22.25 -4.453125 C 23.84375 -5.441406 25.078125 -6.867188 25.953125 -8.734375 C 26.828125 -10.597656 27.265625 -12.800781 27.265625 -15.34375 C 27.265625 -17.875 26.828125 -20.082031 25.953125 -21.96875 C 25.078125 -23.863281 23.847656 -25.3125 22.265625 -26.3125 C 20.691406 -27.320312 18.90625 -27.828125 16.90625 -27.828125 C 13.519531 -27.828125 10.894531 -26.691406 9.03125 -24.421875 C 7.164062 -22.160156 6.234375 -18.992188 6.234375 -14.921875 Z M 6.234375 -14.921875 "/></g></g><g style="fill:#ffffff;fill-opacity:1;"><g transform="translate(150.54634, 159.749987)"><path style="stroke:none" d="M 8.046875 0 L 3.953125 0 L 3.953125 -30.78125 L 8.046875 -30.78125 Z M 8.046875 0 "/></g></g><g style="fill:#ffffff;fill-opacity:1;"><g transform="translate(162.49927, 159.749987)"><path style="stroke:none" d="M 16.9375 -8.21875 C 17.144531 -7.644531 17.546875 -6.378906 18.140625 -4.421875 C 18.460938 -5.429688 18.976562 -6.992188 19.6875 -9.109375 L 27.171875 -30.78125 L 32.640625 -30.78125 L 32.640625 0 L 28.71875 0 L 28.71875 -25.75 L 19.78125 0 L 16.078125 0 L 7.1875 -26.1875 L 7.1875 0 L 3.265625 0 L 3.265625 -30.78125 L 9.421875 -30.78125 Z M 16.9375 -8.21875 "/></g></g><g style="fill:#ffffff;fill-opacity:1;"><g transform="translate(198.315074, 159.749987)"><path style="stroke:none" d="M 28.765625 0 L 24.125 0 L 20.515625 -9.375 L 7.65625 -9.375 L 4.296875 0 L -0.046875 0 L 11.78125 -30.78125 L 16.171875 -30.78125 Z M 12.21875 -21.671875 L 8.859375 -12.640625 L 19.265625 -12.640625 L 15.484375 -22.796875 C 15.023438 -23.992188 14.492188 -25.582031 13.890625 -27.5625 C 13.890625 -27.414062 13.71875 -26.691406 13.375 -25.390625 C 13.03125 -24.085938 12.644531 -22.847656 12.21875 -21.671875 Z M 12.21875 -21.671875 "/></g></g><g style="fill:#ffffff;fill-opacity:1;"><g transform="translate(225.359612, 159.749987)"><path style="stroke:none" d="M 17.671875 -31.296875 C 24.492188 -31.296875 28.679688 -28.257812 30.234375 -22.1875 L 26.578125 -21.15625 C 26.546875 -21.238281 26.453125 -21.550781 26.296875 -22.09375 C 26.140625 -22.644531 25.894531 -23.226562 25.5625 -23.84375 C 25.226562 -24.457031 24.847656 -24.96875 24.421875 -25.375 C 22.671875 -27.007812 20.453125 -27.828125 17.765625 -27.828125 C 14.179688 -27.828125 11.398438 -26.726562 9.421875 -24.53125 C 7.441406 -22.332031 6.453125 -19.316406 6.453125 -15.484375 C 6.453125 -11.441406 7.5 -8.375 9.59375 -6.28125 C 11.6875 -4.1875 14.566406 -3.140625 18.234375 -3.140625 C 19.660156 -3.140625 21.21875 -3.472656 22.90625 -4.140625 C 24.601562 -4.816406 25.894531 -5.546875 26.78125 -6.328125 L 26.78125 -12.078125 L 17.671875 -12.078125 L 17.671875 -15.6875 L 30.703125 -15.6875 L 30.703125 -4.296875 C 28.671875 -2.691406 26.613281 -1.488281 24.53125 -0.6875 C 22.445312 0.113281 20.25 0.515625 17.9375 0.515625 C 14.832031 0.515625 12.09375 -0.132812 9.71875 -1.4375 C 7.34375 -2.738281 5.5 -4.578125 4.1875 -6.953125 C 2.882812 -9.335938 2.234375 -12.109375 2.234375 -15.265625 C 2.234375 -18.390625 2.847656 -21.160156 4.078125 -23.578125 C 5.316406 -26.003906 7.097656 -27.894531 9.421875 -29.25 C 11.742188 -30.613281 14.492188 -31.296875 17.671875 -31.296875 Z M 17.671875 -31.296875 "/></g></g><g style="fill:#ffffff;fill-opacity:1;"><g transform="translate(258.810633, 159.749987)"><path style="stroke:none" d="M 25.671875 -27.171875 L 7.484375 -27.171875 L 7.484375 -17.71875 L 24.515625 -17.71875 L 24.515625 -14.109375 L 7.484375 -14.109375 L 7.484375 -3.609375 L 26.359375 -3.609375 L 26.359375 0 L 3.390625 0 L 3.390625 -30.78125 L 25.671875 -30.78125 Z M 25.671875 -27.171875 "/></g></g><g style="fill:#ffffff;fill-opacity:1;"><g transform="translate(287.491642, 159.749987)"><path style="stroke:none" d=""/></g></g><g style="fill:#ffffff;fill-opacity:1;"><g transform="translate(98.128376, 219.749982)"><path style="stroke:none" d="M 28.765625 0 L 24.125 0 L 20.515625 -9.375 L 7.65625 -9.375 L 4.296875 0 L -0.046875 0 L 11.78125 -30.78125 L 16.171875 -30.78125 Z M 12.21875 -21.671875 L 8.859375 -12.640625 L 19.265625 -12.640625 L 15.484375 -22.796875 C 15.023438 -23.992188 14.492188 -25.582031 13.890625 -27.5625 C 13.890625 -27.414062 13.71875 -26.691406 13.375 -25.390625 C 13.03125 -24.085938 12.644531 -22.847656 12.21875 -21.671875 Z M 12.21875 -21.671875 "/></g></g><g style="fill:#ffffff;fill-opacity:1;"><g transform="translate(124.01198, 219.749982)"><path style="stroke:none" d="M 12.765625 -8.171875 C 13.367188 -6.566406 13.875 -4.972656 14.28125 -3.390625 C 14.789062 -5.140625 15.347656 -6.816406 15.953125 -8.421875 L 24.25 -30.78125 L 28.421875 -30.78125 L 16.390625 0 L 12.171875 0 L 0.265625 -30.78125 L 4.6875 -30.78125 Z M 12.765625 -8.171875 "/></g></g><g style="fill:#ffffff;fill-opacity:1;"><g transform="translate(149.895584, 219.749982)"><path style="stroke:none" d="M 28.765625 0 L 24.125 0 L 20.515625 -9.375 L 7.65625 -9.375 L 4.296875 0 L -0.046875 0 L 11.78125 -30.78125 L 16.171875 -30.78125 Z M 12.21875 -21.671875 L 8.859375 -12.640625 L 19.265625 -12.640625 L 15.484375 -22.796875 C 15.023438 -23.992188 14.492188 -25.582031 13.890625 -27.5625 C 13.890625 -27.414062 13.71875 -26.691406 13.375 -25.390625 C 13.03125 -24.085938 12.644531 -22.847656 12.21875 -21.671875 Z M 12.21875 -21.671875 "/></g></g><g style="fill:#ffffff;fill-opacity:1;"><g transform="translate(178.574029, 219.749982)"><path style="stroke:none" d="M 8.046875 0 L 3.953125 0 L 3.953125 -30.78125 L 8.046875 -30.78125 Z M 8.046875 0 "/></g></g><g style="fill:#ffffff;fill-opacity:1;"><g transform="translate(190.526959, 219.749982)"><path style="stroke:none" d="M 7.3125 -3.609375 L 22.484375 -3.609375 L 22.484375 0 L 3.21875 0 L 3.21875 -30.78125 L 7.3125 -30.78125 Z M 7.3125 -3.609375 "/></g></g><g style="fill:#ffffff;fill-opacity:1;"><g transform="translate(214.432829, 219.749982)"><path style="stroke:none" d="M 28.765625 0 L 24.125 0 L 20.515625 -9.375 L 7.65625 -9.375 L 4.296875 0 L -0.046875 0 L 11.78125 -30.78125 L 16.171875 -30.78125 Z M 12.21875 -21.671875 L 8.859375 -12.640625 L 19.265625 -12.640625 L 15.484375 -22.796875 C 15.023438 -23.992188 14.492188 -25.582031 13.890625 -27.5625 C 13.890625 -27.414062 13.71875 -26.691406 13.375 -25.390625 C 13.03125 -24.085938 12.644531 -22.847656 12.21875 -21.671875 Z M 12.21875 -21.671875 "/></g></g><g style="fill:#ffffff;fill-opacity:1;"><g transform="translate(243.111274, 219.749982)"><path style="stroke:none" d="M 21.9375 -28.9375 C 23.082031 -28.082031 23.875 -27.113281 24.3125 -26.03125 C 24.757812 -24.957031 24.984375 -24.003906 24.984375 -23.171875 C 24.984375 -20.078125 23.535156 -17.816406 20.640625 -16.390625 C 22.617188 -15.785156 24.070312 -14.820312 25 -13.5 C 25.9375 -12.1875 26.40625 -10.609375 26.40625 -8.765625 C 26.40625 -7.367188 26.046875 -5.945312 25.328125 -4.5 C 24.609375 -3.050781 23.363281 -1.910156 21.59375 -1.078125 C 20.070312 -0.359375 17.960938 0 15.265625 0 L 3.1875 0 L 3.1875 -30.78125 L 15 -30.78125 C 16.726562 -30.78125 18.109375 -30.628906 19.140625 -30.328125 C 20.171875 -30.035156 21.101562 -29.570312 21.9375 -28.9375 Z M 20.9375 -22.453125 C 20.9375 -24.304688 20.34375 -25.554688 19.15625 -26.203125 C 17.96875 -26.847656 16.179688 -27.171875 13.796875 -27.171875 L 7.265625 -27.171875 L 7.265625 -17.84375 L 14.1875 -17.84375 C 16.507812 -17.84375 18.210938 -18.207031 19.296875 -18.9375 C 20.390625 -19.664062 20.9375 -20.835938 20.9375 -22.453125 Z M 19.484375 -4.34375 C 20.453125 -4.832031 21.144531 -5.488281 21.5625 -6.3125 C 21.976562 -7.144531 22.1875 -8.007812 22.1875 -8.90625 C 22.1875 -10.101562 21.882812 -11.117188 21.28125 -11.953125 C 20.675781 -12.785156 19.816406 -13.390625 18.703125 -13.765625 C 17.785156 -14.078125 16.453125 -14.234375 14.703125 -14.234375 L 7.265625 -14.234375 L 7.265625 -3.609375 L 15.484375 -3.609375 C 16.429688 -3.609375 17.203125 -3.664062 17.796875 -3.78125 C 18.398438 -3.894531 18.960938 -4.082031 19.484375 -4.34375 Z M 19.484375 -4.34375 "/></g></g><g style="fill:#ffffff;fill-opacity:1;"><g transform="translate(270.585789, 219.749982)"><path style="stroke:none" d="M 28.765625 0 L 24.125 0 L 20.515625 -9.375 L 7.65625 -9.375 L 4.296875 0 L -0.046875 0 L 11.78125 -30.78125 L 16.171875 -30.78125 Z M 12.21875 -21.671875 L 8.859375 -12.640625 L 19.265625 -12.640625 L 15.484375 -22.796875 C 15.023438 -23.992188 14.492188 -25.582031 13.890625 -27.5625 C 13.890625 -27.414062 13.71875 -26.691406 13.375 -25.390625 C 13.03125 -24.085938 12.644531 -22.847656 12.21875 -21.671875 Z M 12.21875 -21.671875 "/></g></g><g style="fill:#ffffff;fill-opacity:1;"><g transform="translate(299.264223, 219.749982)"><path style="stroke:none" d="M 7.3125 -3.609375 L 22.484375 -3.609375 L 22.484375 0 L 3.21875 0 L 3.21875 -30.78125 L 7.3125 -30.78125 Z M 7.3125 -3.609375 "/></g></g><g style="fill:#ffffff;fill-opacity:1;"><g transform="translate(323.170105, 219.749982)"><path style="stroke:none" d="M 25.671875 -27.171875 L 7.484375 -27.171875 L 7.484375 -17.71875 L 24.515625 -17.71875 L 24.515625 -14.109375 L 7.484375 -14.109375 L 7.484375 -3.609375 L 26.359375 -3.609375 L 26.359375 0 L 3.390625 0 L 3.390625 -30.78125 L 25.671875 -30.78125 Z M 25.671875 -27.171875 "/></g></g></g></svg>